<mxfile host="app.diagrams.net" modified="2024-05-24T05:53:01.925Z" agent="Mozilla/5.0 (Windows NT 10.0; Win64; x64) AppleWebKit/537.36 (KHTML, like Gecko) Chrome/125.0.0.0 Safari/537.36 Edg/125.0.0.0" etag="SRd-K3cdv22FZvs1T5Op" version="24.4.6" type="device">
  <diagram name="Page-1" id="rHvtZpNLZ-HN1viXPjVV">
    <mxGraphModel dx="2213" dy="759" grid="1" gridSize="10" guides="1" tooltips="1" connect="1" arrows="1" fold="1" page="1" pageScale="1" pageWidth="827" pageHeight="1169" math="0" shadow="0">
      <root>
        <mxCell id="0" />
        <mxCell id="1" parent="0" />
        <mxCell id="vppo7oh-kta4-mtknmWl-41" value="" style="rounded=0;whiteSpace=wrap;html=1;" vertex="1" parent="1">
          <mxGeometry x="-70" y="560" width="320" height="110" as="geometry" />
        </mxCell>
        <mxCell id="vppo7oh-kta4-mtknmWl-28" value="" style="rounded=0;whiteSpace=wrap;html=1;" vertex="1" parent="1">
          <mxGeometry x="440" y="80" width="470" height="110" as="geometry" />
        </mxCell>
        <mxCell id="vppo7oh-kta4-mtknmWl-26" value="" style="rounded=0;whiteSpace=wrap;html=1;" vertex="1" parent="1">
          <mxGeometry x="-70" y="400" width="320" height="110" as="geometry" />
        </mxCell>
        <mxCell id="vppo7oh-kta4-mtknmWl-27" value="Module 3" style="text;html=1;align=center;verticalAlign=middle;whiteSpace=wrap;rounded=0;" vertex="1" parent="1">
          <mxGeometry x="-70" y="400" width="60" height="30" as="geometry" />
        </mxCell>
        <mxCell id="vppo7oh-kta4-mtknmWl-24" value="" style="rounded=0;whiteSpace=wrap;html=1;" vertex="1" parent="1">
          <mxGeometry x="-70" y="240" width="320" height="110" as="geometry" />
        </mxCell>
        <mxCell id="vppo7oh-kta4-mtknmWl-25" value="Module 2" style="text;html=1;align=center;verticalAlign=middle;whiteSpace=wrap;rounded=0;" vertex="1" parent="1">
          <mxGeometry x="-70" y="240" width="60" height="30" as="geometry" />
        </mxCell>
        <mxCell id="vppo7oh-kta4-mtknmWl-22" value="" style="rounded=0;whiteSpace=wrap;html=1;" vertex="1" parent="1">
          <mxGeometry x="-70" y="80" width="320" height="110" as="geometry" />
        </mxCell>
        <mxCell id="vppo7oh-kta4-mtknmWl-4" style="edgeStyle=orthogonalEdgeStyle;rounded=0;orthogonalLoop=1;jettySize=auto;html=1;startArrow=classic;startFill=1;dashed=1;dashPattern=1 4;endArrow=none;endFill=0;" edge="1" parent="1" source="vppo7oh-kta4-mtknmWl-1" target="vppo7oh-kta4-mtknmWl-2">
          <mxGeometry relative="1" as="geometry" />
        </mxCell>
        <mxCell id="vppo7oh-kta4-mtknmWl-1" value="Analog Read" style="rounded=0;whiteSpace=wrap;html=1;fillColor=#d5e8d4;strokeColor=#82b366;" vertex="1" parent="1">
          <mxGeometry x="-50" y="270" width="120" height="60" as="geometry" />
        </mxCell>
        <mxCell id="vppo7oh-kta4-mtknmWl-2" value="Architecture server" style="rounded=0;whiteSpace=wrap;html=1;fillColor=#ffe6cc;strokeColor=#d79b00;" vertex="1" parent="1">
          <mxGeometry x="110" y="270" width="120" height="60" as="geometry" />
        </mxCell>
        <mxCell id="vppo7oh-kta4-mtknmWl-10" style="edgeStyle=orthogonalEdgeStyle;rounded=0;orthogonalLoop=1;jettySize=auto;html=1;entryX=0;entryY=0.5;entryDx=0;entryDy=0;startArrow=classic;startFill=1;dashed=1;dashPattern=1 4;endArrow=none;endFill=0;" edge="1" parent="1" source="vppo7oh-kta4-mtknmWl-5" target="vppo7oh-kta4-mtknmWl-7">
          <mxGeometry relative="1" as="geometry" />
        </mxCell>
        <mxCell id="vppo7oh-kta4-mtknmWl-5" value="Architecture client" style="rounded=0;whiteSpace=wrap;html=1;fillColor=#ffe6cc;strokeColor=#d79b00;" vertex="1" parent="1">
          <mxGeometry x="460" y="110" width="120" height="60" as="geometry" />
        </mxCell>
        <mxCell id="vppo7oh-kta4-mtknmWl-61" style="edgeStyle=orthogonalEdgeStyle;rounded=0;orthogonalLoop=1;jettySize=auto;html=1;entryX=0;entryY=0.5;entryDx=0;entryDy=0;dashed=1;dashPattern=1 4;startArrow=classic;startFill=1;endArrow=none;endFill=0;" edge="1" parent="1" source="vppo7oh-kta4-mtknmWl-7" target="vppo7oh-kta4-mtknmWl-8">
          <mxGeometry relative="1" as="geometry" />
        </mxCell>
        <mxCell id="vppo7oh-kta4-mtknmWl-7" value="Decoder" style="rounded=0;whiteSpace=wrap;html=1;fillColor=#d5e8d4;strokeColor=#82b366;" vertex="1" parent="1">
          <mxGeometry x="620" y="110" width="120" height="60" as="geometry" />
        </mxCell>
        <mxCell id="vppo7oh-kta4-mtknmWl-8" value="Visualization" style="rounded=0;whiteSpace=wrap;html=1;fillColor=#d5e8d4;strokeColor=#82b366;" vertex="1" parent="1">
          <mxGeometry x="780" y="110" width="120" height="60" as="geometry" />
        </mxCell>
        <mxCell id="vppo7oh-kta4-mtknmWl-14" style="edgeStyle=orthogonalEdgeStyle;rounded=0;orthogonalLoop=1;jettySize=auto;html=1;startArrow=classic;startFill=1;dashed=1;dashPattern=1 4;endArrow=none;endFill=0;" edge="1" parent="1" source="vppo7oh-kta4-mtknmWl-15" target="vppo7oh-kta4-mtknmWl-16">
          <mxGeometry relative="1" as="geometry" />
        </mxCell>
        <mxCell id="vppo7oh-kta4-mtknmWl-15" value="Analog Read" style="rounded=0;whiteSpace=wrap;html=1;fillColor=#d5e8d4;strokeColor=#82b366;" vertex="1" parent="1">
          <mxGeometry x="-50" y="110" width="120" height="60" as="geometry" />
        </mxCell>
        <mxCell id="vppo7oh-kta4-mtknmWl-21" style="edgeStyle=orthogonalEdgeStyle;rounded=0;orthogonalLoop=1;jettySize=auto;html=1;entryX=0.5;entryY=0;entryDx=0;entryDy=0;startArrow=classic;startFill=1;fillColor=#f8cecc;strokeColor=#b85450;dashed=1;" edge="1" parent="1" source="vppo7oh-kta4-mtknmWl-16" target="vppo7oh-kta4-mtknmWl-2">
          <mxGeometry relative="1" as="geometry" />
        </mxCell>
        <mxCell id="vppo7oh-kta4-mtknmWl-16" value="Architecture server" style="rounded=0;whiteSpace=wrap;html=1;fillColor=#ffe6cc;strokeColor=#d79b00;" vertex="1" parent="1">
          <mxGeometry x="110" y="110" width="120" height="60" as="geometry" />
        </mxCell>
        <mxCell id="vppo7oh-kta4-mtknmWl-17" style="edgeStyle=orthogonalEdgeStyle;rounded=0;orthogonalLoop=1;jettySize=auto;html=1;startArrow=classic;startFill=1;dashed=1;dashPattern=1 4;endArrow=none;endFill=0;" edge="1" parent="1" source="vppo7oh-kta4-mtknmWl-18" target="vppo7oh-kta4-mtknmWl-19">
          <mxGeometry relative="1" as="geometry" />
        </mxCell>
        <mxCell id="vppo7oh-kta4-mtknmWl-18" value="Analog Read" style="rounded=0;whiteSpace=wrap;html=1;fillColor=#d5e8d4;strokeColor=#82b366;" vertex="1" parent="1">
          <mxGeometry x="-50" y="430" width="120" height="60" as="geometry" />
        </mxCell>
        <mxCell id="vppo7oh-kta4-mtknmWl-20" style="edgeStyle=orthogonalEdgeStyle;rounded=0;orthogonalLoop=1;jettySize=auto;html=1;entryX=0.5;entryY=1;entryDx=0;entryDy=0;startArrow=classic;startFill=1;fillColor=#f8cecc;strokeColor=#b85450;dashed=1;" edge="1" parent="1" source="vppo7oh-kta4-mtknmWl-19" target="vppo7oh-kta4-mtknmWl-2">
          <mxGeometry relative="1" as="geometry" />
        </mxCell>
        <mxCell id="vppo7oh-kta4-mtknmWl-40" style="edgeStyle=orthogonalEdgeStyle;rounded=0;orthogonalLoop=1;jettySize=auto;html=1;exitX=1;exitY=0.25;exitDx=0;exitDy=0;entryX=1;entryY=0.75;entryDx=0;entryDy=0;startArrow=classic;startFill=1;fillColor=#f8cecc;strokeColor=#b85450;dashed=1;" edge="1" parent="1" source="vppo7oh-kta4-mtknmWl-19" target="vppo7oh-kta4-mtknmWl-16">
          <mxGeometry relative="1" as="geometry">
            <Array as="points">
              <mxPoint x="260" y="445" />
              <mxPoint x="260" y="155" />
            </Array>
          </mxGeometry>
        </mxCell>
        <mxCell id="vppo7oh-kta4-mtknmWl-46" style="edgeStyle=orthogonalEdgeStyle;rounded=0;orthogonalLoop=1;jettySize=auto;html=1;entryX=0.5;entryY=0;entryDx=0;entryDy=0;startArrow=classic;startFill=1;fillColor=#f8cecc;strokeColor=#b85450;dashed=1;" edge="1" parent="1" source="vppo7oh-kta4-mtknmWl-19" target="vppo7oh-kta4-mtknmWl-45">
          <mxGeometry relative="1" as="geometry" />
        </mxCell>
        <mxCell id="vppo7oh-kta4-mtknmWl-19" value="Architecture server" style="rounded=0;whiteSpace=wrap;html=1;fillColor=#ffe6cc;strokeColor=#d79b00;" vertex="1" parent="1">
          <mxGeometry x="110" y="430" width="120" height="60" as="geometry" />
        </mxCell>
        <mxCell id="vppo7oh-kta4-mtknmWl-23" value="Module 1" style="text;html=1;align=center;verticalAlign=middle;whiteSpace=wrap;rounded=0;" vertex="1" parent="1">
          <mxGeometry x="-70" y="80" width="60" height="30" as="geometry" />
        </mxCell>
        <mxCell id="vppo7oh-kta4-mtknmWl-29" value="Controller" style="text;html=1;align=center;verticalAlign=middle;whiteSpace=wrap;rounded=0;" vertex="1" parent="1">
          <mxGeometry x="440" y="80" width="60" height="30" as="geometry" />
        </mxCell>
        <mxCell id="vppo7oh-kta4-mtknmWl-30" value="" style="endArrow=classic;startArrow=classic;html=1;rounded=0;dashed=1;dashPattern=1 4;" edge="1" parent="1">
          <mxGeometry width="50" height="50" relative="1" as="geometry">
            <mxPoint x="460" y="460" as="sourcePoint" />
            <mxPoint x="500" y="460" as="targetPoint" />
          </mxGeometry>
        </mxCell>
        <mxCell id="vppo7oh-kta4-mtknmWl-33" value="Function calls" style="edgeLabel;html=1;align=center;verticalAlign=middle;resizable=0;points=[];" vertex="1" connectable="0" parent="vppo7oh-kta4-mtknmWl-30">
          <mxGeometry x="0.15" y="1" relative="1" as="geometry">
            <mxPoint x="57" as="offset" />
          </mxGeometry>
        </mxCell>
        <mxCell id="vppo7oh-kta4-mtknmWl-31" value="" style="endArrow=classic;startArrow=classic;html=1;rounded=0;fillColor=#f8cecc;strokeColor=#b85450;dashed=1;" edge="1" parent="1">
          <mxGeometry width="50" height="50" relative="1" as="geometry">
            <mxPoint x="460" y="479.5" as="sourcePoint" />
            <mxPoint x="500" y="479.5" as="targetPoint" />
          </mxGeometry>
        </mxCell>
        <mxCell id="vppo7oh-kta4-mtknmWl-34" value="Software synchronized UART" style="edgeLabel;html=1;align=center;verticalAlign=middle;resizable=0;points=[];" vertex="1" connectable="0" parent="vppo7oh-kta4-mtknmWl-31">
          <mxGeometry x="0.15" relative="1" as="geometry">
            <mxPoint x="97" y="1" as="offset" />
          </mxGeometry>
        </mxCell>
        <mxCell id="vppo7oh-kta4-mtknmWl-42" value="Module 4" style="text;html=1;align=center;verticalAlign=middle;whiteSpace=wrap;rounded=0;" vertex="1" parent="1">
          <mxGeometry x="-70" y="560" width="60" height="30" as="geometry" />
        </mxCell>
        <mxCell id="vppo7oh-kta4-mtknmWl-43" style="edgeStyle=orthogonalEdgeStyle;rounded=0;orthogonalLoop=1;jettySize=auto;html=1;startArrow=classic;startFill=1;dashed=1;dashPattern=1 4;endArrow=none;endFill=0;" edge="1" parent="1" source="vppo7oh-kta4-mtknmWl-44" target="vppo7oh-kta4-mtknmWl-45">
          <mxGeometry relative="1" as="geometry" />
        </mxCell>
        <mxCell id="vppo7oh-kta4-mtknmWl-44" value="Analog Read" style="rounded=0;whiteSpace=wrap;html=1;fillColor=#d5e8d4;strokeColor=#82b366;" vertex="1" parent="1">
          <mxGeometry x="-50" y="590" width="120" height="60" as="geometry" />
        </mxCell>
        <mxCell id="vppo7oh-kta4-mtknmWl-45" value="Architecture server" style="rounded=0;whiteSpace=wrap;html=1;fillColor=#ffe6cc;strokeColor=#d79b00;" vertex="1" parent="1">
          <mxGeometry x="110" y="590" width="120" height="60" as="geometry" />
        </mxCell>
        <mxCell id="vppo7oh-kta4-mtknmWl-65" value="Module 1" style="ellipse;whiteSpace=wrap;html=1;aspect=fixed;" vertex="1" parent="1">
          <mxGeometry x="547" y="235" width="80" height="80" as="geometry" />
        </mxCell>
        <mxCell id="vppo7oh-kta4-mtknmWl-73" style="edgeStyle=orthogonalEdgeStyle;rounded=0;orthogonalLoop=1;jettySize=auto;html=1;entryX=0;entryY=0.5;entryDx=0;entryDy=0;startArrow=classic;startFill=1;" edge="1" parent="1" source="vppo7oh-kta4-mtknmWl-66" target="vppo7oh-kta4-mtknmWl-67">
          <mxGeometry relative="1" as="geometry" />
        </mxCell>
        <mxCell id="vppo7oh-kta4-mtknmWl-66" value="Module 2" style="ellipse;whiteSpace=wrap;html=1;aspect=fixed;" vertex="1" parent="1">
          <mxGeometry x="467" y="320" width="80" height="80" as="geometry" />
        </mxCell>
        <mxCell id="vppo7oh-kta4-mtknmWl-69" style="edgeStyle=orthogonalEdgeStyle;rounded=0;orthogonalLoop=1;jettySize=auto;html=1;entryX=0;entryY=0.5;entryDx=0;entryDy=0;startArrow=classic;startFill=1;" edge="1" parent="1" source="vppo7oh-kta4-mtknmWl-67" target="vppo7oh-kta4-mtknmWl-68">
          <mxGeometry relative="1" as="geometry" />
        </mxCell>
        <mxCell id="vppo7oh-kta4-mtknmWl-67" value="Module 3" style="ellipse;whiteSpace=wrap;html=1;aspect=fixed;" vertex="1" parent="1">
          <mxGeometry x="627" y="320" width="80" height="80" as="geometry" />
        </mxCell>
        <mxCell id="vppo7oh-kta4-mtknmWl-68" value="Module 4" style="ellipse;whiteSpace=wrap;html=1;aspect=fixed;" vertex="1" parent="1">
          <mxGeometry x="747" y="320" width="80" height="80" as="geometry" />
        </mxCell>
        <mxCell id="vppo7oh-kta4-mtknmWl-71" value="" style="endArrow=classic;startArrow=classic;html=1;rounded=0;entryX=0;entryY=0;entryDx=0;entryDy=0;exitX=1;exitY=1;exitDx=0;exitDy=0;" edge="1" parent="1" source="vppo7oh-kta4-mtknmWl-65" target="vppo7oh-kta4-mtknmWl-67">
          <mxGeometry width="50" height="50" relative="1" as="geometry">
            <mxPoint x="697" y="260" as="sourcePoint" />
            <mxPoint x="507" y="220" as="targetPoint" />
          </mxGeometry>
        </mxCell>
        <mxCell id="vppo7oh-kta4-mtknmWl-72" value="" style="endArrow=classic;startArrow=classic;html=1;rounded=0;entryX=0;entryY=1;entryDx=0;entryDy=0;exitX=1;exitY=0;exitDx=0;exitDy=0;" edge="1" parent="1" source="vppo7oh-kta4-mtknmWl-66" target="vppo7oh-kta4-mtknmWl-65">
          <mxGeometry width="50" height="50" relative="1" as="geometry">
            <mxPoint x="457" y="270" as="sourcePoint" />
            <mxPoint x="507" y="220" as="targetPoint" />
          </mxGeometry>
        </mxCell>
        <mxCell id="vppo7oh-kta4-mtknmWl-74" value="" style="html=1;verticalLabelPosition=bottom;align=center;labelBackgroundColor=#ffffff;verticalAlign=top;strokeWidth=2;strokeColor=#0080F0;shadow=0;dashed=0;shape=mxgraph.ios7.icons.wifi;pointerEvents=1" vertex="1" parent="1">
          <mxGeometry x="470" y="500" width="29.7" height="21" as="geometry" />
        </mxCell>
        <mxCell id="vppo7oh-kta4-mtknmWl-75" value="Wifi UDP" style="text;html=1;align=center;verticalAlign=middle;whiteSpace=wrap;rounded=0;" vertex="1" parent="1">
          <mxGeometry x="510" y="495.5" width="60" height="30" as="geometry" />
        </mxCell>
        <mxCell id="vppo7oh-kta4-mtknmWl-76" value="" style="html=1;verticalLabelPosition=bottom;align=center;labelBackgroundColor=#ffffff;verticalAlign=top;strokeWidth=2;strokeColor=#0080F0;shadow=0;dashed=0;shape=mxgraph.ios7.icons.wifi;pointerEvents=1;rotation=90;" vertex="1" parent="1">
          <mxGeometry x="260" y="110" width="50" height="41" as="geometry" />
        </mxCell>
        <mxCell id="vppo7oh-kta4-mtknmWl-77" value="" style="html=1;verticalLabelPosition=bottom;align=center;labelBackgroundColor=#ffffff;verticalAlign=top;strokeWidth=2;strokeColor=#0080F0;shadow=0;dashed=0;shape=mxgraph.ios7.icons.wifi;pointerEvents=1;rotation=90;" vertex="1" parent="1">
          <mxGeometry x="260" y="274.5" width="50" height="41" as="geometry" />
        </mxCell>
        <mxCell id="vppo7oh-kta4-mtknmWl-79" value="" style="html=1;verticalLabelPosition=bottom;align=center;labelBackgroundColor=#ffffff;verticalAlign=top;strokeWidth=2;strokeColor=#0080F0;shadow=0;dashed=0;shape=mxgraph.ios7.icons.wifi;pointerEvents=1;rotation=90;" vertex="1" parent="1">
          <mxGeometry x="260" y="439.5" width="50" height="41" as="geometry" />
        </mxCell>
        <mxCell id="vppo7oh-kta4-mtknmWl-80" value="" style="html=1;verticalLabelPosition=bottom;align=center;labelBackgroundColor=#ffffff;verticalAlign=top;strokeWidth=2;strokeColor=#0080F0;shadow=0;dashed=0;shape=mxgraph.ios7.icons.wifi;pointerEvents=1;rotation=90;" vertex="1" parent="1">
          <mxGeometry x="260" y="594.5" width="50" height="41" as="geometry" />
        </mxCell>
        <mxCell id="vppo7oh-kta4-mtknmWl-81" value="" style="html=1;verticalLabelPosition=bottom;align=center;labelBackgroundColor=#ffffff;verticalAlign=top;strokeWidth=2;strokeColor=#0080F0;shadow=0;dashed=0;shape=mxgraph.ios7.icons.wifi;pointerEvents=1;rotation=-90;" vertex="1" parent="1">
          <mxGeometry x="389" y="114.5" width="50" height="41" as="geometry" />
        </mxCell>
      </root>
    </mxGraphModel>
  </diagram>
</mxfile>
